<?xml version="1.0" encoding="utf-8"?>
<!-- Generator: Adobe Illustrator 16.0.0, SVG Export Plug-In . SVG Version: 6.00 Build 0)  -->
<!DOCTYPE svg PUBLIC "-//W3C//DTD SVG 1.1//EN" "http://www.w3.org/Graphics/SVG/1.1/DTD/svg11.dtd">
<svg version="1.1" id="Layer_1" xmlns="http://www.w3.org/2000/svg" xmlns:xlink="http://www.w3.org/1999/xlink" x="0px" y="0px"
	 width="249.553px" height="53.481px" viewBox="0 0 249.553 53.481" enable-background="new 0 0 249.553 53.481"
	 xml:space="preserve">
<g>
	<g>
		<g opacity="0.75">
			<path fill="#FFFFFF" d="M249.553,43.686c0,5.221-4.232,9.453-9.452,9.453H9.453C4.232,53.139,0,48.906,0,43.686V10.453
				C0,5.232,4.232,1,9.453,1h230.648c5.22,0,9.452,4.232,9.452,9.453V43.686z"/>
		</g>
		<g>
			<radialGradient id="SVGID_1_" cx="124.7764" cy="26.0693" r="90.1357" gradientUnits="userSpaceOnUse">
				<stop  offset="0" style="stop-color:#4E4E4E"/>
				<stop  offset="1" style="stop-color:#1A1A1A"/>
			</radialGradient>
			<path fill="url(#SVGID_1_)" d="M249.553,42.686c0,5.221-4.232,9.453-9.452,9.453H9.453C4.232,52.139,0,47.906,0,42.686V9.453
				C0,4.232,4.232,0,9.453,0h230.648c5.22,0,9.452,4.232,9.452,9.453V42.686z"/>
		</g>
	</g>
	<linearGradient id="SVGID_2_" gradientUnits="userSpaceOnUse" x1="125.4331" y1="34.8652" x2="125.4331" y2="-99.9686">
		<stop  offset="0" style="stop-color:#FFFFFF;stop-opacity:0"/>
		<stop  offset="1" style="stop-color:#FFFFFF"/>
	</linearGradient>
	<path fill="url(#SVGID_2_)" d="M247.497,13.596c0,5.221-4.231,9.453-9.452,9.453H12.822c-5.221,0-9.453-4.232-9.453-9.453v-1.92
		c0-5.221,4.232-9.453,9.453-9.453h225.223c5.221,0,9.452,4.232,9.452,9.453V13.596z"/>
</g>
</svg>
